<mxfile host="app.diagrams.net" modified="2021-05-17T10:17:03.213Z" agent="5.0 (Macintosh; Intel Mac OS X 10_15_7) AppleWebKit/537.36 (KHTML, like Gecko) Chrome/90.0.4430.212 Safari/537.36" etag="KQ8lq1tPl6gTjBhQsf5a" version="14.6.13" type="github">
  <diagram id="QzUdSv5bi3c13NPvNYom" name="Page-1">
    <mxGraphModel dx="1125" dy="686" grid="1" gridSize="10" guides="1" tooltips="1" connect="1" arrows="1" fold="1" page="1" pageScale="1" pageWidth="1169" pageHeight="1654" math="0" shadow="0">
      <root>
        <mxCell id="0" />
        <mxCell id="1" parent="0" />
        <mxCell id="bUeCEsJDket9SZMUi5b--61" style="edgeStyle=orthogonalEdgeStyle;curved=0;rounded=1;sketch=0;orthogonalLoop=1;jettySize=auto;html=1;exitX=0.5;exitY=1;exitDx=0;exitDy=0;strokeColor=#000000;" edge="1" parent="1">
          <mxGeometry relative="1" as="geometry">
            <mxPoint x="264" y="160" as="targetPoint" />
            <mxPoint x="370" y="100" as="sourcePoint" />
            <Array as="points">
              <mxPoint x="370" y="120" />
              <mxPoint x="264" y="120" />
            </Array>
          </mxGeometry>
        </mxCell>
        <mxCell id="bUeCEsJDket9SZMUi5b--62" style="edgeStyle=orthogonalEdgeStyle;curved=0;rounded=1;sketch=0;orthogonalLoop=1;jettySize=auto;html=1;exitX=0.5;exitY=1;exitDx=0;exitDy=0;strokeColor=#000000;entryX=0.5;entryY=0;entryDx=0;entryDy=0;" edge="1" parent="1" target="bUeCEsJDket9SZMUi5b--65">
          <mxGeometry relative="1" as="geometry">
            <mxPoint x="590" y="160" as="targetPoint" />
            <mxPoint x="371" y="100" as="sourcePoint" />
            <Array as="points">
              <mxPoint x="371" y="120" />
              <mxPoint x="715" y="120" />
            </Array>
          </mxGeometry>
        </mxCell>
        <mxCell id="bUeCEsJDket9SZMUi5b--3" value="學車王" style="rounded=1;whiteSpace=wrap;html=1;" vertex="1" parent="1">
          <mxGeometry x="321" y="60" width="90" height="40" as="geometry" />
        </mxCell>
        <mxCell id="bUeCEsJDket9SZMUi5b--34" value="" style="endArrow=none;html=1;" edge="1" parent="1">
          <mxGeometry width="50" height="50" relative="1" as="geometry">
            <mxPoint x="457.5" y="240" as="sourcePoint" />
            <mxPoint x="72.5" y="240" as="targetPoint" />
          </mxGeometry>
        </mxCell>
        <mxCell id="bUeCEsJDket9SZMUi5b--36" value="新手報名" style="rounded=0;whiteSpace=wrap;html=1;shadow=0;labelBackgroundColor=none;sketch=0;direction=north;" vertex="1" parent="1">
          <mxGeometry x="50" y="290" width="40" height="80" as="geometry" />
        </mxCell>
        <mxCell id="bUeCEsJDket9SZMUi5b--39" value="中間搵師傅" style="rounded=0;whiteSpace=wrap;html=1;shadow=0;labelBackgroundColor=none;sketch=0;direction=north;" vertex="1" parent="1">
          <mxGeometry x="116" y="290" width="40" height="80" as="geometry" />
        </mxCell>
        <mxCell id="bUeCEsJDket9SZMUi5b--41" value="補鐘" style="rounded=0;whiteSpace=wrap;html=1;shadow=0;labelBackgroundColor=none;sketch=0;direction=north;" vertex="1" parent="1">
          <mxGeometry x="180" y="290" width="40" height="80" as="geometry" />
        </mxCell>
        <mxCell id="bUeCEsJDket9SZMUi5b--43" value="快期" style="rounded=0;whiteSpace=wrap;html=1;shadow=0;labelBackgroundColor=none;sketch=0;direction=north;" vertex="1" parent="1">
          <mxGeometry x="245" y="290" width="40" height="80" as="geometry" />
        </mxCell>
        <mxCell id="bUeCEsJDket9SZMUi5b--45" value="職前課程" style="rounded=0;whiteSpace=wrap;html=1;shadow=0;labelBackgroundColor=none;sketch=0;direction=north;" vertex="1" parent="1">
          <mxGeometry x="434" y="290" width="40" height="80" as="geometry" />
        </mxCell>
        <mxCell id="bUeCEsJDket9SZMUi5b--47" value="商業車輛課程" style="rounded=0;whiteSpace=wrap;html=1;shadow=0;labelBackgroundColor=none;sketch=0;direction=north;" vertex="1" parent="1">
          <mxGeometry x="310" y="290" width="40" height="80" as="geometry" />
        </mxCell>
        <mxCell id="bUeCEsJDket9SZMUi5b--49" value="電單車" style="rounded=0;whiteSpace=wrap;html=1;shadow=0;labelBackgroundColor=none;sketch=0;direction=north;" vertex="1" parent="1">
          <mxGeometry x="371" y="290" width="40" height="80" as="geometry" />
        </mxCell>
        <mxCell id="bUeCEsJDket9SZMUi5b--50" style="edgeStyle=none;rounded=0;orthogonalLoop=1;jettySize=auto;html=1;" edge="1" parent="1">
          <mxGeometry relative="1" as="geometry">
            <mxPoint x="71.5" y="290" as="targetPoint" />
            <mxPoint x="72" y="240" as="sourcePoint" />
          </mxGeometry>
        </mxCell>
        <mxCell id="bUeCEsJDket9SZMUi5b--51" style="edgeStyle=none;rounded=0;orthogonalLoop=1;jettySize=auto;html=1;" edge="1" parent="1">
          <mxGeometry relative="1" as="geometry">
            <mxPoint x="135.5" y="290" as="targetPoint" />
            <mxPoint x="136" y="240" as="sourcePoint" />
          </mxGeometry>
        </mxCell>
        <mxCell id="bUeCEsJDket9SZMUi5b--52" style="edgeStyle=none;rounded=0;orthogonalLoop=1;jettySize=auto;html=1;" edge="1" parent="1">
          <mxGeometry relative="1" as="geometry">
            <mxPoint x="199.5" y="290" as="targetPoint" />
            <mxPoint x="200" y="240" as="sourcePoint" />
          </mxGeometry>
        </mxCell>
        <mxCell id="bUeCEsJDket9SZMUi5b--53" style="edgeStyle=none;rounded=0;orthogonalLoop=1;jettySize=auto;html=1;" edge="1" parent="1">
          <mxGeometry relative="1" as="geometry">
            <mxPoint x="264.5" y="290" as="targetPoint" />
            <mxPoint x="265" y="240" as="sourcePoint" />
          </mxGeometry>
        </mxCell>
        <mxCell id="bUeCEsJDket9SZMUi5b--55" style="edgeStyle=none;rounded=0;orthogonalLoop=1;jettySize=auto;html=1;" edge="1" parent="1">
          <mxGeometry relative="1" as="geometry">
            <mxPoint x="329.5" y="290" as="targetPoint" />
            <mxPoint x="330" y="240" as="sourcePoint" />
          </mxGeometry>
        </mxCell>
        <mxCell id="bUeCEsJDket9SZMUi5b--56" style="edgeStyle=none;rounded=0;orthogonalLoop=1;jettySize=auto;html=1;" edge="1" parent="1">
          <mxGeometry relative="1" as="geometry">
            <mxPoint x="390.5" y="290" as="targetPoint" />
            <mxPoint x="391" y="240" as="sourcePoint" />
          </mxGeometry>
        </mxCell>
        <mxCell id="bUeCEsJDket9SZMUi5b--57" style="edgeStyle=none;rounded=0;orthogonalLoop=1;jettySize=auto;html=1;" edge="1" parent="1">
          <mxGeometry relative="1" as="geometry">
            <mxPoint x="456" y="290" as="targetPoint" />
            <mxPoint x="456.5" y="240" as="sourcePoint" />
          </mxGeometry>
        </mxCell>
        <mxCell id="bUeCEsJDket9SZMUi5b--63" value="匹配服務" style="rounded=1;whiteSpace=wrap;html=1;" vertex="1" parent="1">
          <mxGeometry x="220" y="160" width="90" height="40" as="geometry" />
        </mxCell>
        <mxCell id="bUeCEsJDket9SZMUi5b--64" value="" style="endArrow=none;html=1;strokeColor=#000000;" edge="1" parent="1">
          <mxGeometry width="50" height="50" relative="1" as="geometry">
            <mxPoint x="264.5" y="240" as="sourcePoint" />
            <mxPoint x="264.5" y="200" as="targetPoint" />
          </mxGeometry>
        </mxCell>
        <mxCell id="bUeCEsJDket9SZMUi5b--65" value="線上課程" style="rounded=1;whiteSpace=wrap;html=1;" vertex="1" parent="1">
          <mxGeometry x="670" y="160" width="90" height="40" as="geometry" />
        </mxCell>
        <mxCell id="bUeCEsJDket9SZMUi5b--66" value="" style="endArrow=none;html=1;" edge="1" parent="1">
          <mxGeometry width="50" height="50" relative="1" as="geometry">
            <mxPoint x="784" y="240" as="sourcePoint" />
            <mxPoint x="651" y="240" as="targetPoint" />
          </mxGeometry>
        </mxCell>
        <mxCell id="bUeCEsJDket9SZMUi5b--67" value="" style="endArrow=none;html=1;strokeColor=#000000;" edge="1" parent="1">
          <mxGeometry width="50" height="50" relative="1" as="geometry">
            <mxPoint x="714.5" y="240" as="sourcePoint" />
            <mxPoint x="714.5" y="200" as="targetPoint" />
          </mxGeometry>
        </mxCell>
        <mxCell id="bUeCEsJDket9SZMUi5b--68" value="學車王筆試VIP" style="rounded=0;whiteSpace=wrap;html=1;shadow=0;labelBackgroundColor=none;sketch=0;direction=north;" vertex="1" parent="1">
          <mxGeometry x="628.5" y="290" width="40" height="80" as="geometry" />
        </mxCell>
        <mxCell id="bUeCEsJDket9SZMUi5b--69" value="學車王路試VIP" style="rounded=0;whiteSpace=wrap;html=1;shadow=0;labelBackgroundColor=none;sketch=0;direction=north;" vertex="1" parent="1">
          <mxGeometry x="694.5" y="290" width="40" height="80" as="geometry" />
        </mxCell>
        <mxCell id="bUeCEsJDket9SZMUi5b--70" style="edgeStyle=none;rounded=0;orthogonalLoop=1;jettySize=auto;html=1;" edge="1" parent="1">
          <mxGeometry relative="1" as="geometry">
            <mxPoint x="650" y="290" as="targetPoint" />
            <mxPoint x="650.5" y="240" as="sourcePoint" />
          </mxGeometry>
        </mxCell>
        <mxCell id="bUeCEsJDket9SZMUi5b--71" style="edgeStyle=none;rounded=0;orthogonalLoop=1;jettySize=auto;html=1;" edge="1" parent="1">
          <mxGeometry relative="1" as="geometry">
            <mxPoint x="714" y="290" as="targetPoint" />
            <mxPoint x="714.5" y="240" as="sourcePoint" />
          </mxGeometry>
        </mxCell>
        <mxCell id="bUeCEsJDket9SZMUi5b--72" value="的士筆試VIP" style="rounded=0;whiteSpace=wrap;html=1;shadow=0;labelBackgroundColor=none;sketch=0;direction=north;" vertex="1" parent="1">
          <mxGeometry x="761.5" y="290" width="40" height="80" as="geometry" />
        </mxCell>
        <mxCell id="bUeCEsJDket9SZMUi5b--74" style="edgeStyle=none;rounded=0;orthogonalLoop=1;jettySize=auto;html=1;" edge="1" parent="1">
          <mxGeometry relative="1" as="geometry">
            <mxPoint x="783" y="290" as="targetPoint" />
            <mxPoint x="783.5" y="240" as="sourcePoint" />
          </mxGeometry>
        </mxCell>
      </root>
    </mxGraphModel>
  </diagram>
</mxfile>
